REM DIRINDEX 1\3,1\4,1\5,1\6,1\2\7,1\2\8,1\2\9,1\2\10,1\2\11
REM DIRNAME cjc021,folder01,folder02,folder03,folder04,folder05,folder06,folder07,folder08,folder09,folder10
TITLE ""
FILE "DISC5Track32.mp3" MP3
  TRACK 01 AUDIO
    TITLE "0:"
    INDEX 01 00:00:00
  TRACK 02 AUDIO
    TITLE "3:cjc021_5687"
    INDEX 01 00:00:23
  TRACK 03 AUDIO
    TITLE "0:"
    INDEX 01 00:01:26
  TRACK 04 AUDIO
    TITLE "4:cjc021_5688"
    INDEX 01 00:03:04
  TRACK 05 AUDIO
    TITLE "0:"
    INDEX 01 00:04:09
  TRACK 06 AUDIO
    TITLE "5:cjc021_5689"
    INDEX 01 00:04:42
  TRACK 07 AUDIO
    TITLE "0:"
    INDEX 01 00:07:68
  TRACK 08 AUDIO
    TITLE "3:cjc021_5690"
    INDEX 01 00:09:30
  TRACK 09 AUDIO
    TITLE "0:"
    INDEX 01 00:10:53
  TRACK 10 AUDIO
    TITLE "4:cjc021_5691"
    INDEX 01 00:12:30
  TRACK 11 AUDIO
    TITLE "0:"
    INDEX 01 00:13:53
  TRACK 12 AUDIO
    TITLE "5:cjc021_5692"
    INDEX 01 00:14:13
  TRACK 13 AUDIO
    TITLE "0:"
    INDEX 01 00:16:44
  TRACK 14 AUDIO
    TITLE "3:cjc021_5693"
    INDEX 01 00:18:07
  TRACK 15 AUDIO
    TITLE "0:"
    INDEX 01 00:19:05
  TRACK 16 AUDIO
    TITLE "4:cjc021_5694"
    INDEX 01 00:20:57
  TRACK 17 AUDIO
    TITLE "0:"
    INDEX 01 00:21:57
  TRACK 18 AUDIO
    TITLE "5:cjc021_5695"
    INDEX 01 00:22:17
  TRACK 19 AUDIO
    TITLE "0:"
    INDEX 01 00:24:25
  TRACK 20 AUDIO
    TITLE "3:cjc021_5696"
    INDEX 01 00:25:62
  TRACK 21 AUDIO
    TITLE "0:"
    INDEX 01 00:26:69
  TRACK 22 AUDIO
    TITLE "4:cjc021_5697"
    INDEX 01 00:28:45
  TRACK 23 AUDIO
    TITLE "0:"
    INDEX 01 00:29:50
  TRACK 24 AUDIO
    TITLE "5:cjc021_5698"
    INDEX 01 00:30:10
  TRACK 25 AUDIO
    TITLE "0:"
    INDEX 01 00:33:42
  TRACK 26 AUDIO
    TITLE "3:cjc021_5699"
    INDEX 01 00:35:10
  TRACK 27 AUDIO
    TITLE "0:"
    INDEX 01 00:36:38
  TRACK 28 AUDIO
    TITLE "4:cjc021_5700"
    INDEX 01 00:38:14
  TRACK 29 AUDIO
    TITLE "0:"
    INDEX 01 00:39:41
  TRACK 30 AUDIO
    TITLE "5:cjc021_5701"
    INDEX 01 00:40:05
  TRACK 31 AUDIO
    TITLE "0:"
    INDEX 01 00:42:51
  TRACK 32 AUDIO
    TITLE "3:cjc021_5702"
    INDEX 01 00:44:12
  TRACK 33 AUDIO
    TITLE "0:"
    INDEX 01 00:45:35
  TRACK 34 AUDIO
    TITLE "4:cjc021_5703"
    INDEX 01 00:47:09
  TRACK 35 AUDIO
    TITLE "0:"
    INDEX 01 00:48:32
  TRACK 36 AUDIO
    TITLE "5:cjc021_5704"
    INDEX 01 00:48:67
  TRACK 37 AUDIO
    TITLE "0:"
    INDEX 01 00:51:62
  TRACK 38 AUDIO
    TITLE "3:cjc021_5705"
    INDEX 01 00:53:21
  TRACK 39 AUDIO
    TITLE "0:"
    INDEX 01 00:54:32
  TRACK 40 AUDIO
    TITLE "4:cjc021_5706"
    INDEX 01 00:56:08
  TRACK 41 AUDIO
    TITLE "0:"
    INDEX 01 00:57:21
  TRACK 42 AUDIO
    TITLE "5:cjc021_5707"
    INDEX 01 00:57:54
  TRACK 43 AUDIO
    TITLE "0:"
    INDEX 01 00:59:53
  TRACK 44 AUDIO
    TITLE "3:cjc021_5708"
    INDEX 01 01:01:15
  TRACK 45 AUDIO
    TITLE "0:"
    INDEX 01 01:02:20
  TRACK 46 AUDIO
    TITLE "4:cjc021_5709"
    INDEX 01 01:03:71
  TRACK 47 AUDIO
    TITLE "0:"
    INDEX 01 01:04:74
  TRACK 48 AUDIO
    TITLE "5:cjc021_5710"
    INDEX 01 01:05:36
  TRACK 49 AUDIO
    TITLE "0:"
    INDEX 01 01:09:48
  TRACK 50 AUDIO
    TITLE "3:cjc021_5711"
    INDEX 01 01:11:09
  TRACK 51 AUDIO
    TITLE "0:"
    INDEX 01 01:12:38
  TRACK 52 AUDIO
    TITLE "4:cjc021_5712"
    INDEX 01 01:14:17
  TRACK 53 AUDIO
    TITLE "0:"
    INDEX 01 01:15:48
  TRACK 54 AUDIO
    TITLE "5:cjc021_5713"
    INDEX 01 01:16:09
  TRACK 55 AUDIO
    TITLE "0:"
    INDEX 01 01:19:32
  TRACK 56 AUDIO
    TITLE "3:cjc021_5714"
    INDEX 01 01:21:12
  TRACK 57 AUDIO
    TITLE "0:"
    INDEX 01 01:22:33
  TRACK 58 AUDIO
    TITLE "4:cjc021_5715"
    INDEX 01 01:24:08
  TRACK 59 AUDIO
    TITLE "0:"
    INDEX 01 01:25:29
  TRACK 60 AUDIO
    TITLE "5:cjc021_5716"
    INDEX 01 01:25:64
  TRACK 61 AUDIO
    TITLE "0:"
    INDEX 01 01:29:03
